<svg fill="rgba(255, 255, 255, 0.658)" xmlns="http://www.w3.org/2000/svg" viewBox="0 0 496 512"><path d="M347.9 129.9l-144.3 66c-7 3.2-12.6 8.8-15.8 15.8l-66 144.3c-7.6 16.6 9.5 33.8 26.2 26.2l144.3-66c7-3.2 12.6-8.8 15.8-15.8l66-144.3c7.6-16.7-9.5-33.8-26.2-26.2zm-77.3 148.7c-12.5 12.5-32.7 12.5-45.2 0s-12.5-32.7 0-45.2 32.7-12.5 45.2 0 12.5 32.7 0 45.2zM248 8C111 8 0 119 0 256s111 248 248 248 248-111 248-248S385 8 248 8zm0 448c-110.3 0-200-89.7-200-200S137.7 56 248 56s200 89.7 200 200-89.7 200-200 200z"/></svg>