<?xml version="1.0" encoding="utf-8"?>
<!-- Generator: Adobe Illustrator 23.0.2, SVG Export Plug-In . SVG Version: 6.00 Build 0)  -->
<svg version="1.1" id="Layer_1" xmlns="http://www.w3.org/2000/svg" xmlns:xlink="http://www.w3.org/1999/xlink" x="0px" y="0px"
	 viewBox="0 0 250 85" style="enable-background:new 0 0 250 85;" xml:space="preserve">
<style type="text/css">
	.st0{fill:#2D2D2D;}
	.st1{fill:url(#SVGID_1_);}
	.st2{font-family:'Montserrat-SemiBold';}
	.st3{font-size:75.7085px;}
</style>
<ellipse class="st0" cx="219.1" cy="51.8" rx="25.4" ry="26.4"/>
<linearGradient id="SVGID_1_" gradientUnits="userSpaceOnUse" x1="113.3472" y1="74.5787" x2="181.1823" y2="-0.7598" gradientTransform="matrix(-1 0 0 1 351.0381 0)">
	<stop  offset="0" style="stop-color:#3876F2"/>
	<stop  offset="0.1111" style="stop-color:#3E77ED"/>
	<stop  offset="0.2562" style="stop-color:#4E79E1"/>
	<stop  offset="0.4199" style="stop-color:#697DCB"/>
	<stop  offset="0.5974" style="stop-color:#8F82AE"/>
	<stop  offset="0.7861" style="stop-color:#BF8988"/>
	<stop  offset="0.9813" style="stop-color:#F9915A"/>
	<stop  offset="1" style="stop-color:#FF9255"/>
</linearGradient>
<path class="st1" d="M165.2,2c0.4-1.4,1.9-2.2,3.3-1.8c6.4,1.9,18.5,5.7,31.1,10.1c0.3-1.2,0.7-2.2,0.9-3.1c0.1-0.2,0.1-0.3,0.2-0.5
	c0.7-1.3,2.3-1.8,3.6-1.1c7,3.6,25.3,13.6,35.6,23.5c0.2,0.2,0.4,0.3,0.6,0.5l0,0c12.6,12.5,12.6,32.9,0,45.4
	c-12.6,12.5-33.1,12.5-45.7,0c-0.2-0.2-0.3-0.4-0.5-0.6c-9.9-10.2-20-28.4-23.6-35.4c-0.1-0.2-0.1-0.3-0.2-0.5
	c-0.4-1.4,0.4-2.9,1.8-3.3c0.9-0.3,1.9-0.6,3.1-0.9c-4.5-12.5-8.2-24.6-10.2-30.9C165,3,165,2.5,165.2,2z M196.9,52.8
	c0,11.7,9.5,21.1,21.2,21.1c11.7,0,21.2-9.4,21.2-21.1c0-11.7-9.5-21.1-21.2-21.1C206.4,31.7,196.9,41.2,196.9,52.8
	C196.9,52.8,196.9,52.8,196.9,52.8z M218.2,47.6C218.2,47.6,218.2,47.5,218.2,47.6c0-2.9,2.4-5.3,5.3-5.3c2.9,0,5.3,2.4,5.3,5.3
	c0,2.9-2.4,5.3-5.3,5.3C220.5,52.8,218.2,50.5,218.2,47.6L218.2,47.6z M212.8,60.7c0-1.5,1.2-2.6,2.7-2.6c1.5,0,2.7,1.2,2.7,2.6
	c0,1.5-1.2,2.6-2.7,2.6C214,63.4,212.8,62.2,212.8,60.7L212.8,60.7z"/>
<text transform="matrix(1.0018 0 0 1 -7 72.8652)" class="st0 st2 st3">Mete</text>
</svg>
