<svg id="Layer_1" data-name="Layer 1" xmlns="http://www.w3.org/2000/svg" xmlns:xlink="http://www.w3.org/1999/xlink" viewBox="0 0 249.87 84.42"><defs><style>.cls-1{fill:#2d2d2d;}.cls-2{fill:url(#linear-gradient);}</style><linearGradient id="linear-gradient" x1="113.35" y1="74.58" x2="181.18" y2="-0.76" gradientTransform="matrix(-1, 0, 0, 1, 351.04, 0)" gradientUnits="userSpaceOnUse"><stop offset="0" stop-color="#3876f2"/><stop offset="0.11" stop-color="#3e77ed"/><stop offset="0.26" stop-color="#4e79e1"/><stop offset="0.42" stop-color="#697dcb"/><stop offset="0.6" stop-color="#8f82ae"/><stop offset="0.79" stop-color="#bf8988"/><stop offset="0.98" stop-color="#f9915a"/><stop offset="1" stop-color="#ff9255"/></linearGradient></defs><title>meteo-logo</title><ellipse class="cls-1" cx="218.99" cy="51.7" rx="25.37" ry="26.38"/><path class="cls-2" d="M165.18,2A2.67,2.67,0,0,1,168.52.19c6.42,1.91,18.55,5.65,31.14,10.1.35-1.15.66-2.22.93-3.06a2.43,2.43,0,0,1,.19-.47,2.67,2.67,0,0,1,3.61-1.1c7,3.64,25.34,13.62,35.56,23.5.19.16.42.33.59.49h0a32,32,0,0,1,0,45.43,32.47,32.47,0,0,1-45.71,0c-.17-.17-.34-.4-.5-.58-9.92-10.16-20-28.38-23.64-35.35a2.76,2.76,0,0,1-.2-.47,2.65,2.65,0,0,1,1.78-3.31l3.08-.92C170.86,21.92,167.1,9.88,165.17,3.5A2.58,2.58,0,0,1,165.18,2Zm31.74,50.87a21.24,21.24,0,1,0,21.24-21.11,21.17,21.17,0,0,0-21.24,21.11Zm21.24-5.28v0a5.31,5.31,0,1,1,5.31,5.29,5.28,5.28,0,0,1-5.31-5.29Zm-5.31,13.19a2.66,2.66,0,1,1,2.65,2.63,2.65,2.65,0,0,1-2.65-2.63Z" transform="translate(-0.13 -0.07)"/><path class="cls-1" d="M48.9,72.87l-.08-35.13L31.38,66.81H27L9.53,38.19V72.87H.13v-53H8.25L29.33,55,50,19.87h8.11l.08,53Z" transform="translate(-0.13 -0.07)"/><path class="cls-1" d="M109.58,55.68H77.8a11,11,0,0,0,4.36,7.08,14.32,14.32,0,0,0,8.76,2.61,14.78,14.78,0,0,0,11-4.39L107,66.81a17.12,17.12,0,0,1-6.9,4.92,27.39,27.39,0,0,1-21.17-1,19.18,19.18,0,0,1-7.85-7.39,20.84,20.84,0,0,1-2.76-10.71A21.09,21.09,0,0,1,71,42a19.07,19.07,0,0,1,7.47-7.38A21.9,21.9,0,0,1,89.25,32a21.3,21.3,0,0,1,10.58,2.61,18.52,18.52,0,0,1,7.28,7.35,22.16,22.16,0,0,1,2.62,10.94C109.73,53.53,109.68,54.47,109.58,55.68Zm-28-13.44a11.32,11.32,0,0,0-3.83,7.16h23A11.15,11.15,0,0,0,97,42.28a11.33,11.33,0,0,0-7.74-2.73A11.47,11.47,0,0,0,81.55,42.24Z" transform="translate(-0.13 -0.07)"/><path class="cls-1" d="M143.18,70.67a11.17,11.17,0,0,1-4.06,2,18.1,18.1,0,0,1-5,.69q-6.68,0-10.32-3.49t-3.64-10.14V40.31h-6.68V32.74h6.68V23.5h9.48v9.24h10.85v7.57H129.6V59.54A6.37,6.37,0,0,0,131,64a5.39,5.39,0,0,0,4.17,1.56,8.32,8.32,0,0,0,5.31-1.67Z" transform="translate(-0.13 -0.07)"/><path class="cls-1" d="M187.55,55.68H155.77a11,11,0,0,0,4.36,7.08,14.32,14.32,0,0,0,8.76,2.61,14.77,14.77,0,0,0,11-4.39L185,66.81a17.12,17.12,0,0,1-6.9,4.92,27.36,27.36,0,0,1-21.16-1,19.06,19.06,0,0,1-7.85-7.39,20.75,20.75,0,0,1-2.77-10.71A21.09,21.09,0,0,1,149,42a19.13,19.13,0,0,1,7.47-7.38A21.92,21.92,0,0,1,167.22,32a21.28,21.28,0,0,1,10.58,2.61,18.52,18.52,0,0,1,7.28,7.35,22.16,22.16,0,0,1,2.62,10.94C187.7,53.53,187.65,54.47,187.55,55.68Zm-28-13.44a11.32,11.32,0,0,0-3.83,7.16h23A11.15,11.15,0,0,0,175,42.28a11.32,11.32,0,0,0-7.74-2.73A11.47,11.47,0,0,0,159.52,42.24Z" transform="translate(-0.13 -0.07)"/></svg>